<?xml version="1.0" ?><svg id="Layer_3" style="enable-background:new 0 0 64 64;" version="1.1" viewBox="0 0 64 64" xml:space="preserve" xmlns="http://www.w3.org/2000/svg" xmlns:xlink="http://www.w3.org/1999/xlink"><g><g><rect height="27" style="fill:#787FAA;" width="2" x="31" y="36"/></g><polyline points="4,48 2,62 4,62 8,48  " style="fill:#4C506E;"/><polyline points="17,48 19,62 17,62 13,48  " style="fill:#4C506E;"/><rect height="4" style="fill:#787FAA;" width="19" x="2" y="44"/><path d="M5,44v1c0,0.552,0.448,1,1,1h15v-2H5z" style="fill:#4C506E;"/><polyline points="3,44 2,29 4,29 7,44  " style="fill:#363A4F;"/><path d="M26,58l-0.921-15.649c-0.051-0.87-0.42-1.692-1.037-2.309h0C23.375,39.375,22.47,39,21.525,39H10v5   h10l2,14" style="fill:#9DA1BF;"/><path d="M27,58h-6v4h8v-2C29,58.895,28.105,58,27,58z" style="fill:#2862BE;"/><path d="M10,39v-5.515c0-5.433,2.158-10.644,6-14.485l0,0l3,1l0,0c1.117,2.233,1.779,4.661,1.953,7.143   L21,31.946V39" style="fill:#2862BE;"/><path d="M28,28h3c0.552,0,1,0.448,1,1v3h-4" style="fill:#FBE1CA;"/><g><rect height="2" style="fill:#363A4F;" width="22" x="21" y="35"/></g><g><rect height="3" style="fill:#E1656E;" width="2" x="31" y="1"/></g><g><rect height="3" style="fill:#E1656E;" width="2" x="31" y="12"/></g><g><rect height="2" style="fill:#F29B99;" width="3" x="25" y="7"/></g><g><rect height="2" style="fill:#F29B99;" width="3" x="36" y="7"/></g><circle cx="32" cy="8" r="4" style="fill:#E1656E;"/><g><path d="M32,13c-2.757,0-5-2.243-5-5s2.243-5,5-5s5,2.243,5,5S34.757,13,32,13z M32,5c-1.654,0-3,1.346-3,3    s1.346,3,3,3s3-1.346,3-3S33.654,5,32,5z" style="fill:#BA4753;"/></g><g><rect height="5.657" style="fill:#8D353E;" transform="matrix(0.7071 -0.7071 0.7071 0.7071 4.9584 21.9706)" width="2" x="28" y="2.172"/></g><g><rect height="2" style="fill:#F29B99;" transform="matrix(0.7071 -0.7071 0.7071 0.7071 6.7157 26.2132)" width="5.657" x="32.172" y="4"/></g><g><rect height="2" style="fill:#F29B99;" transform="matrix(0.7071 -0.7071 0.7071 0.7071 0.7157 23.7279)" width="5.657" x="26.172" y="10"/></g><g><rect height="5.657" style="fill:#8D353E;" transform="matrix(0.7071 -0.7071 0.7071 0.7071 2.4731 27.9706)" width="2" x="34" y="8.172"/></g><path d="M13,29v6c0,1.105,0.895,2,2,2h6v-5.054l-0.047-4.803c-0.099-1.409-0.372-2.795-0.78-4.143H19   C15.686,23,13,25.686,13,29z" style="fill:#3279EA;"/><path d="M14,28L14,28c1.889,2.518,4.852,4,8,4h6l0-4h-3c-3.148,0-6.111-1.482-8-4l0,0" style="fill:#2862BE;"/><circle cx="19" cy="14" r="6" style="fill:#FBE1CA;"/><path d="M24.119,10.881C23.065,9.156,21.17,8,19,8c-3.314,0-6,2.686-6,6c0,1.952,0.936,3.68,2.379,4.776   C16.382,18.112,17,16.986,17,15.764V14c0-1.105,0.895-2,2-2h2.588c0.904,0,1.772-0.359,2.411-0.999L24.119,10.881z" style="fill:#4C506E;"/><path d="M27,58h-5v1c0,0.552,0.448,1,1,1h6C29,58.895,28.105,58,27,58z" style="fill:#3279EA;"/><polyline points="60,48 62,62 60,62 56,48  " style="fill:#4C506E;"/><polyline points="47,48 45,62 47,62 51,48  " style="fill:#4C506E;"/><rect height="4" style="fill:#787FAA;" transform="matrix(-1 4.490041e-11 -4.490041e-11 -1 105 92)" width="19" x="43" y="44"/><path d="M59,44v1c0,0.552-0.448,1-1,1H43v-2H59z" style="fill:#4C506E;"/><polyline points="61,44 62,29 60,29 57,44  " style="fill:#363A4F;"/><path d="M38,58l0.921-15.649c0.051-0.87,0.42-1.692,1.037-2.309l0,0C40.625,39.375,41.53,39,42.475,39H54v5   H44l-2,14" style="fill:#9DA1BF;"/><path d="M37,58h6v4h-8v-2C35,58.895,35.895,58,37,58z" style="fill:#B52F28;"/><path d="M54,39v-5.515c0-5.433-2.158-10.644-6-14.485l0,0l-3,1l0,0c-1.117,2.233-1.779,4.661-1.953,7.143   L43,31.946V39" style="fill:#B52F28;"/><path d="M36,28h-3c-0.552,0-1,0.448-1,1v3h4" style="fill:#F2B9A1;"/><path d="M51,29v6c0,1.105-0.895,2-2,2h-6v-5.054l0.047-4.803c0.099-1.409,0.372-2.795,0.78-4.143H45   C48.314,23,51,25.686,51,29z" style="fill:#D23F34;"/><path d="M50,28L50,28c-1.889,2.518-4.852,4-8,4h-6l0-4h3c3.148,0,6.111-1.482,8-4l0,0" style="fill:#B52F28;"/><circle cx="45" cy="14" r="6" style="fill:#F2B9A1;"/><path d="M39.881,10.881C40.935,9.156,42.83,8,45,8c3.314,0,6,2.686,6,6c0,1.952-0.936,3.68-2.379,4.776   C47.618,18.112,47,16.986,47,15.764V14c0-1.105-0.895-2-2-2h-2.588c-0.904,0-1.772-0.359-2.411-0.999L39.881,10.881z" style="fill:#4C506E;"/><path d="M37,58h5v1c0,0.552-0.448,1-1,1h-6C35,58.895,35.895,58,37,58z" style="fill:#D23F34;"/><path d="M62.068,43.014l0.93-13.947c0.019-0.276-0.078-0.547-0.267-0.75C62.541,28.115,62.277,28,62,28h-2   c-0.477,0-0.887,0.336-0.98,0.804L56.18,43H55v-9.515c0-5.296-1.924-10.286-5.407-14.216C51.064,17.985,52,16.102,52,14   c0-3.86-3.14-7-7-7s-7,3.14-7,7c0,3.358,2.377,6.169,5.537,6.844c-0.742,1.786-1.213,3.657-1.411,5.588   C41.135,26.8,40.077,27,39,27h-6c-0.366,0-0.705,0.106-1,0.278C31.705,27.106,31.366,27,31,27h-6c-1.077,0-2.135-0.2-3.126-0.568   c-0.198-1.931-0.669-3.802-1.411-5.588C23.623,20.169,26,17.358,26,14c0-3.86-3.14-7-7-7s-7,3.14-7,7   c0,2.102,0.936,3.985,2.407,5.27C10.924,23.2,9,28.189,9,33.485V43H7.82L4.98,28.804C4.887,28.336,4.477,28,4,28H2   c-0.277,0-0.541,0.115-0.73,0.317c-0.189,0.202-0.286,0.474-0.267,0.75l0.93,13.947C1.413,43.05,1,43.472,1,44v4   c0,0.552,0.448,1,1,1h0.847L1.01,61.858c-0.041,0.287,0.044,0.578,0.234,0.797C1.435,62.874,1.71,63,2,63h2   c0.446,0,0.839-0.296,0.961-0.725L8.754,49h3.491l3.793,13.275C16.161,62.704,16.554,63,17,63h2c0.29,0,0.565-0.126,0.755-0.345   c0.19-0.219,0.275-0.51,0.234-0.797L18.153,49h1.551l1.147,8.03C20.373,57.104,20,57.5,20,58v4c0,0.552,0.448,1,1,1h8   c0.552,0,1-0.448,1-1v-2c0-1.654-1.346-3-3-3h-0.057l-0.865-14.707c-0.065-1.117-0.537-2.167-1.328-2.957   c-0.747-0.747-1.713-1.182-2.75-1.29V37h9v26h2V37h9v1.046c-1.037,0.108-2.003,0.542-2.75,1.29   c-0.791,0.791-1.262,1.84-1.328,2.957L37.057,57H37c-1.654,0-3,1.346-3,3v2c0,0.552,0.448,1,1,1h8c0.552,0,1-0.448,1-1v-4   c0-0.5-0.373-0.896-0.851-0.97L44.296,49h1.551L44.01,61.858c-0.041,0.287,0.044,0.578,0.234,0.797C44.435,62.874,44.71,63,45,63h2   c0.446,0,0.839-0.296,0.961-0.725L51.754,49h3.491l3.793,13.275C59.161,62.704,59.554,63,60,63h2c0.29,0,0.565-0.126,0.755-0.345   c0.19-0.219,0.275-0.51,0.234-0.797L61.153,49H62c0.552,0,1-0.448,1-1v-4C63,43.472,62.587,43.05,62.068,43.014z M60.82,30h0.111   l-0.866,13H58.22L60.82,30z M45,9c2.757,0,5,2.243,5,5c0,1.328-0.529,2.529-1.376,3.425C48.239,16.964,48,16.392,48,15.764V14   c0-1.654-1.346-3-3-3h-2.586c-0.4,0-0.79-0.113-1.14-0.301C42.19,9.666,43.513,9,45,9z M40,14c0-0.553,0.112-1.075,0.278-1.572   C40.926,12.789,41.651,13,42.414,13H45c0.551,0,1,0.449,1,1v1.764c0,1.051,0.355,2.035,0.971,2.828C46.366,18.853,45.7,19,45,19   C42.243,19,40,16.757,40,14z M47.8,24.6l-1.6-1.2c-0.539,0.718-1.187,1.332-1.901,1.852c0.269-1.48,0.732-2.911,1.366-4.285   c0.788-0.075,1.535-0.284,2.226-0.599C51.18,23.964,53,28.58,53,33.485V38h-9v-5.204c2.685-0.503,5.139-1.982,6.8-4.196l-1.6-1.2   C47.509,29.654,44.818,31,42,31h-5v-2h2C42.444,29,45.733,27.355,47.8,24.6z M35,29v2h-2v-2H35z M31,31h-2v-2h2V31z M19,19   c-0.7,0-1.366-0.147-1.971-0.408C17.645,17.799,18,16.815,18,15.764V14c0-0.551,0.449-1,1-1h2.586c0.763,0,1.488-0.211,2.136-0.572   C23.888,12.925,24,13.447,24,14C24,16.757,21.757,19,19,19z M14,14c0-2.757,2.243-5,5-5c1.487,0,2.81,0.666,3.726,1.699   c-0.35,0.188-0.74,0.301-1.14,0.301H19c-1.654,0-3,1.346-3,3v1.764c0,0.628-0.239,1.2-0.624,1.661C14.529,16.529,14,15.328,14,14z    M16.108,20.367c0.69,0.315,1.438,0.524,2.226,0.599c0.634,1.374,1.097,2.805,1.366,4.285c-0.713-0.52-1.362-1.133-1.901-1.852   l-1.6,1.2c2.066,2.755,5.356,4.4,8.8,4.4h2v2h-5c-2.818,0-5.509-1.346-7.2-3.6l-1.6,1.2c1.66,2.214,4.115,3.693,6.8,4.196V38h-9   v-4.515C11,28.58,12.82,23.964,16.108,20.367z M3.18,30l2.6,13H3.935L3.069,30H3.18z M3.246,61H3.153l1.714-12h1.807L3.246,61z    M17.847,61h-0.093l-3.429-12h1.807L17.847,61z M3,47v-2h16.133l0.286,2H3z M28,60v1h-6v-2h5C27.551,59,28,59.449,28,60z    M24.082,42.41L24.94,57h-2.073L20.99,43.858C20.919,43.366,20.498,43,20,43h-9v-3h10.525c0.684,0,1.327,0.267,1.811,0.75   C23.78,41.194,24.044,41.784,24.082,42.41z M22,35v-2h10h10v2H22z M42,61h-6v-1c0-0.551,0.449-1,1-1h5V61z M44,43   c-0.498,0-0.919,0.366-0.99,0.858L41.133,57H39.06l0.858-14.59c0.037-0.626,0.302-1.216,0.746-1.66   c0.484-0.483,1.127-0.75,1.811-0.75H53v3H44z M44.867,45H61v2H44.582L44.867,45z M46.246,61h-0.093l1.714-12h1.807L46.246,61z    M60.847,61h-0.093l-3.429-12h1.807L60.847,61z"/><path d="M25,7v2h2.101c0.13,0.637,0.384,1.229,0.732,1.753l-1.54,1.54l1.414,1.414l1.54-1.54c0.524,0.348,1.116,0.602,1.753,0.732   V15h2v-2.101c0.637-0.13,1.229-0.384,1.753-0.732l1.54,1.54l1.414-1.414l-1.54-1.54c0.348-0.524,0.602-1.116,0.732-1.753H39V7   h-2.101c-0.13-0.637-0.384-1.229-0.732-1.753l1.54-1.54l-1.414-1.414l-1.54,1.54C34.229,3.485,33.637,3.231,33,3.101V1h-2v2.101   c-0.637,0.13-1.229,0.384-1.753,0.732l-1.54-1.54l-1.414,1.414l1.54,1.54C27.485,5.771,27.231,6.363,27.101,7H25z M30.293,7.707   l1.414-1.414l-0.992-0.992C31.106,5.113,31.538,5,32,5s0.894,0.113,1.285,0.301l-0.992,0.992l1.414,1.414l0.992-0.992   C34.887,7.106,35,7.538,35,8s-0.113,0.894-0.301,1.285l-0.992-0.992l-1.414,1.414l0.992,0.992C32.894,10.887,32.462,11,32,11   s-0.894-0.113-1.285-0.301l0.992-0.992l-1.414-1.414l-0.992,0.992C29.113,8.894,29,8.462,29,8s0.113-0.894,0.301-1.285   L30.293,7.707z"/></g></svg>